<svg width="70" height="56" viewBox="0 0 70 56" fill="none" xmlns="http://www.w3.org/2000/svg">
<g clip-path="url(#clip0_7139_71)">
<path d="M53.2877 56.0002H68.0315C69.1252 56.0002 70.0002 55.1252 70.0002 54.0315V28.5688C70.0002 27.475 69.1252 26.6 68.0315 26.6H53.5502C51.144 26.6 49.1752 24.6312 49.1752 22.225V1.96876C49.1752 0.875002 48.3002 0 47.2065 0H31.3687C30.7562 0 30.1875 0.2625 29.8375 0.743752L0.437502 37.5377C0.175 37.8877 0 38.3252 0 38.7627V53.9877C0 55.0815 0.875002 55.9565 1.96876 55.9565H17.8063C18.4188 55.9565 18.9876 55.694 19.3376 55.2127L36.7065 33.4688C37.2315 32.7687 38.0627 32.4187 38.894 32.4187C39.2002 32.4187 39.5065 32.4625 39.8127 32.5938C40.9502 32.9875 41.694 34.0375 41.694 35.2188V44.3627C41.694 50.7502 46.9002 55.9565 53.2877 55.9565V56.0002Z" fill="white"/>
</g>
<defs>
<clipPath id="clip0_7139_71">
<rect width="70" height="56" fill="white"/>
</clipPath>
</defs>
</svg>
